<svg id="svg" version="1.1" xmlns="http://www.w3.org/2000/svg" xmlns:xlink="http://www.w3.org/1999/xlink" width="400" height="400" viewBox="0, 0, 400,400"><g id="svgg"><path id="path0" d="M181.897 2.130 C 179.653 7.979,181.838 11.719,187.500 11.719 C 195.670 11.719,196.024 1.076,187.880 0.291 C 184.467 -0.038,182.497 0.568,181.897 2.130 M206.562 1.875 C 202.095 6.342,205.700 12.500,212.783 12.500 C 216.121 12.500,217.356 11.590,218.113 8.573 C 219.850 1.653,211.580 -3.143,206.562 1.875 M158.192 4.933 C 153.717 9.408,157.707 16.319,164.208 15.354 C 168.952 14.651,171.590 10.193,169.366 6.641 C 167.264 3.284,160.825 2.300,158.192 4.933 M230.334 5.255 C 228.090 11.104,230.276 14.844,235.938 14.844 C 244.107 14.844,244.461 4.201,236.317 3.416 C 232.905 3.087,230.934 3.693,230.334 5.255 M134.755 11.183 C 130.280 15.658,134.269 22.569,140.770 21.604 C 145.514 20.901,148.153 16.443,145.928 12.891 C 143.826 9.534,137.388 8.550,134.755 11.183 M254.167 10.417 C 252.469 12.114,252.979 17.979,255.000 20.000 C 260.304 25.304,269.139 19.067,265.625 12.500 C 263.994 9.453,256.494 8.089,254.167 10.417 M44.458 19.259 C 1.449 35.831,11.869 98.577,57.600 98.397 C 64.331 98.370,70.162 97.339,74.219 95.459 L 80.469 92.563 90.851 102.717 L 101.234 112.871 95.161 120.889 C 80.579 140.141,77.006 152.000,85.172 154.050 C 90.087 155.283,91.614 154.150,95.500 146.378 C 118.910 99.569,176.665 73.117,227.484 85.928 C 322.905 109.985,349.204 233.251,271.585 292.633 C 191.161 354.161,78.987 294.673,83.242 192.752 C 84.129 171.501,83.511 168.750,77.849 168.750 C 71.446 168.750,69.530 175.771,69.552 199.149 C 69.585 233.803,80.041 263.440,99.767 284.793 L 103.762 289.117 93.881 299.087 L 83.999 309.057 75.984 305.325 C 34.515 286.016,-3.268 338.816,28.958 371.042 C 60.220 402.303,113.967 365.722,95.459 325.781 L 92.563 319.531 102.717 309.149 L 112.871 298.766 120.889 304.931 C 165.512 339.243,234.488 339.243,279.111 304.931 L 287.129 298.766 297.283 309.149 L 307.437 319.531 304.541 325.781 C 286.033 365.722,339.780 402.303,371.042 371.042 C 403.652 338.431,363.387 284.284,322.477 305.734 L 316.048 309.104 306.143 299.111 L 296.238 289.117 300.233 284.793 C 338.778 243.069,340.938 167.716,304.931 120.889 L 298.766 112.871 309.149 102.717 L 319.531 92.563 325.781 95.459 C 365.722 113.967,402.303 60.220,371.042 28.958 C 338.431 -3.652,284.284 36.613,305.734 77.523 L 309.104 83.952 299.111 93.857 L 289.117 103.762 284.793 99.767 C 241.978 60.215,163.935 59.024,118.222 97.226 L 110.662 103.543 100.803 93.771 L 90.943 83.999 94.675 75.984 C 110.027 43.012,77.671 6.463,44.458 19.259 M113.672 18.875 C 109.764 21.151,110.035 29.190,114.063 30.469 C 119.556 32.212,123.438 29.927,123.438 24.950 C 123.438 18.855,118.732 15.928,113.672 18.875 M277.455 19.643 C 273.178 23.920,275.905 31.250,281.774 31.250 C 288.863 31.250,292.030 22.011,286.040 18.805 C 281.934 16.607,280.335 16.764,277.455 19.643 M69.264 33.381 C 86.371 40.529,90.294 63.199,76.764 76.728 C 58.102 95.391,29.061 81.139,31.614 54.571 C 33.322 36.800,52.122 26.219,69.264 33.381 M355.437 34.823 C 371.196 43.749,373.356 66.902,359.516 78.547 C 334.385 99.694,300.302 65.620,321.448 40.489 C 329.585 30.819,344.096 28.400,355.437 34.823 M25.380 101.808 C 22.066 105.121,23.067 110.836,27.297 112.763 C 32.617 115.187,36.257 112.058,35.627 105.602 C 35.107 100.278,29.125 98.063,25.380 101.808 M364.375 101.875 C 359.932 106.318,363.507 112.500,370.520 112.500 C 375.233 112.500,377.484 108.489,375.781 103.125 C 374.652 99.568,367.469 98.781,364.375 101.875 M175.996 106.900 C 159.782 112.884,157.428 119.679,158.089 158.594 C 158.557 186.090,158.866 188.835,162.288 195.785 C 164.320 199.912,165.726 203.489,165.413 203.735 C 165.100 203.980,161.567 206.395,157.562 209.101 C 135.162 224.233,121.597 257.818,132.031 272.308 C 136.159 278.041,158.442 288.914,168.503 290.106 C 183.198 291.846,181.775 280.593,166.677 275.651 C 141.061 267.267,137.544 261.353,146.965 242.501 C 156.475 223.469,173.365 212.051,185.980 216.125 C 196.258 219.444,203.742 219.444,214.020 216.125 C 232.498 210.157,263.931 244.736,256.836 263.226 C 254.562 269.152,228.173 278.750,209.193 280.554 C 196.321 281.777,193.750 283.086,193.750 288.418 C 193.750 303.754,258.544 288.137,268.514 270.399 C 278.375 252.854,261.818 219.140,236.340 204.882 C 234.198 203.683,234.356 202.604,237.656 195.900 C 241.255 188.588,241.406 186.954,241.406 155.347 L 241.406 122.413 237.029 116.674 C 228.587 105.606,194.356 100.124,175.996 106.900 M223.558 123.317 C 227.433 127.192,230.899 145.433,227.734 145.296 C 227.520 145.286,223.892 144.232,219.674 142.952 C 208.626 139.600,201.806 140.044,185.938 145.147 L 171.875 149.670 171.875 138.777 C 171.875 121.189,175.301 118.750,200.000 118.750 C 218.906 118.750,219.011 118.770,223.558 123.317 M14.079 124.198 C 9.714 129.459,15.946 137.515,22.450 135.019 C 25.867 133.708,27.409 127.122,24.983 124.198 C 22.503 121.210,16.560 121.210,14.079 124.198 M375.082 124.119 C 371.375 128.586,374.349 134.641,379.974 134.079 C 385.916 133.487,389.039 129.361,386.553 125.391 C 384.313 121.813,377.613 121.070,375.082 124.119 M5.936 149.285 C 4.385 152.687,4.605 153.737,7.465 156.597 C 11.762 160.894,18.750 158.475,18.750 152.690 C 18.750 144.827,9.131 142.271,5.936 149.285 M382.292 146.354 C 380.594 148.052,381.104 153.916,383.125 155.938 C 388.429 161.241,397.264 155.004,393.750 148.438 C 392.119 145.390,384.619 144.027,382.292 146.354 M222.512 159.286 L 228.436 162.947 227.890 174.954 C 226.095 214.439,174.113 215.152,172.122 175.720 L 171.552 164.431 185.385 159.599 C 202.219 153.719,213.353 153.626,222.512 159.286 M2.344 172.436 C -0.643 176.995,0.707 180.976,5.661 182.219 C 10.242 183.369,14.063 180.496,14.063 175.902 C 14.063 168.537,6.387 166.266,2.344 172.436 M387.880 170.558 C 382.469 175.968,388.704 184.787,395.404 181.201 C 400.304 178.579,399.085 169.698,393.739 169.073 C 391.585 168.822,388.948 169.490,387.880 170.558 M390.008 194.218 C 384.770 198.048,387.238 205.469,393.750 205.469 C 398.646 205.469,399.274 204.986,399.743 200.858 C 400.216 196.706,397.093 192.188,393.750 192.188 C 393.219 192.188,391.535 193.101,390.008 194.218 M0.609 195.980 C -1.471 201.399,0.669 205.458,5.870 205.959 C 11.620 206.513,13.446 203.981,11.857 197.653 C 10.740 193.200,2.165 191.925,0.609 195.980 M2.549 220.493 C -2.032 227.033,5.715 234.670,11.805 229.616 C 15.034 226.936,14.594 220.707,11.040 218.805 C 6.682 216.472,5.153 216.776,2.549 220.493 M387.813 219.062 C 385.222 221.653,385.463 227.349,388.261 229.671 C 391.395 232.272,397.875 230.444,398.859 226.681 C 400.566 220.153,392.372 214.503,387.813 219.062 M6.250 245.313 C 3.721 250.039,6.832 254.688,12.525 254.688 C 17.362 254.688,20.158 249.673,18.186 244.535 C 16.820 240.974,8.274 241.530,6.250 245.313 M382.292 243.229 C 380.594 244.927,381.104 250.791,383.125 252.813 C 388.429 258.116,397.264 251.879,393.750 245.313 C 392.119 242.265,384.619 240.902,382.292 243.229 M15.008 266.465 C 10.240 271.233,12.914 278.125,19.531 278.125 C 25.235 278.125,28.438 272.451,25.367 267.789 C 23.229 264.544,17.644 263.830,15.008 266.465 M375.893 266.518 C 371.173 271.237,373.889 278.125,380.469 278.125 C 387.049 278.125,389.764 271.237,385.045 266.518 C 383.694 265.167,381.635 264.063,380.469 264.063 C 379.302 264.063,377.243 265.167,375.893 266.518 M367.795 287.554 C 363.602 289.139,362.053 293.120,364.123 296.988 C 365.926 300.358,371.821 300.992,374.688 298.125 C 379.792 293.020,374.561 284.996,367.795 287.554 M24.479 288.542 C 22.781 290.239,23.291 296.104,25.313 298.125 C 30.616 303.429,39.452 297.192,35.938 290.625 C 34.307 287.578,26.807 286.214,24.479 288.542 M68.033 316.999 C 95.629 329.534,87.603 368.840,57.472 368.724 C 27.793 368.610,21.333 326.371,49.461 316.342 C 57.467 313.487,60.541 313.596,68.033 316.999 M348.780 315.694 C 378.397 323.919,373.129 368.607,342.528 368.724 C 312.306 368.840,304.288 329.572,331.967 316.999 C 339.329 313.655,340.979 313.527,348.780 315.694 M112.813 370.625 C 109.473 373.965,110.609 379.605,115.027 381.618 C 118.624 383.257,119.462 383.055,121.980 379.946 C 127.457 373.182,118.928 364.510,112.813 370.625 M278.792 369.946 C 272.386 374.332,277.941 384.822,284.973 381.618 C 287.674 380.387,289.063 378.523,289.063 376.127 C 289.063 370.124,283.458 366.751,278.792 369.946 M134.688 380.000 C 130.220 384.467,133.825 390.625,140.908 390.625 C 144.246 390.625,145.481 389.715,146.238 386.698 C 147.975 379.778,139.705 374.982,134.688 380.000 M255.067 379.933 C 250.592 384.408,254.582 391.319,261.083 390.354 C 265.827 389.651,268.465 385.193,266.241 381.641 C 264.139 378.284,257.700 377.300,255.067 379.933 M157.861 387.409 C 155.079 392.607,158.413 397.171,164.557 396.576 C 169.108 396.135,169.531 395.629,169.531 390.625 C 169.531 383.823,161.034 381.481,157.861 387.409 M230.469 387.500 C 228.712 393.036,231.008 396.875,236.076 396.875 C 241.772 396.875,245.513 390.726,242.226 386.765 C 239.273 383.206,231.681 383.681,230.469 387.500 M182.292 388.542 C 180.594 390.239,181.104 396.104,183.125 398.125 C 188.429 403.429,197.264 397.192,193.750 390.625 C 192.119 387.578,184.619 386.214,182.292 388.542 M206.299 390.534 C 203.950 394.922,206.785 400.000,211.582 400.000 C 216.203 400.000,219.140 396.544,218.479 391.883 C 217.764 386.835,208.809 385.843,206.299 390.534 " stroke="none" fill="#000000" fill-rule="evenodd"></path></g></svg>